<mxfile host="app.diagrams.net" agent="Mozilla/5.0 (Windows NT 10.0; Win64; x64; rv:130.0) Gecko/20100101 Firefox/130.0" version="24.7.16">
  <diagram name="Page-1" id="rKXKSbG-rJBd0n83CsFM">
    <mxGraphModel dx="2891" dy="675" grid="1" gridSize="10" guides="1" tooltips="1" connect="1" arrows="1" fold="1" page="1" pageScale="1" pageWidth="850" pageHeight="1100" math="0" shadow="0">
      <root>
        <mxCell id="0" />
        <mxCell id="1" parent="0" />
        <mxCell id="kLX442n7oc1yGY5g-aFO-5" value="&lt;font style=&quot;font-size: 15px;&quot;&gt;Workers&lt;/font&gt;" style="swimlane;fontStyle=1;align=center;verticalAlign=top;childLayout=stackLayout;horizontal=1;startSize=26;horizontalStack=0;resizeParent=1;resizeParentMax=0;resizeLast=0;collapsible=1;marginBottom=0;whiteSpace=wrap;html=1;fillColor=#dae8fc;strokeColor=#6c8ebf;" parent="1" vertex="1">
          <mxGeometry x="170" y="560" width="230" height="238" as="geometry" />
        </mxCell>
        <mxCell id="kLX442n7oc1yGY5g-aFO-6" value="&lt;font style=&quot;font-size: 15px;&quot;&gt;int: workersID&lt;/font&gt;&lt;div&gt;&lt;font style=&quot;font-size: 15px;&quot;&gt;string: Name&lt;/font&gt;&lt;/div&gt;&lt;div&gt;&lt;font style=&quot;font-size: 15px;&quot;&gt;char: Email&lt;/font&gt;&lt;/div&gt;&lt;div&gt;&lt;font style=&quot;font-size: 15px;&quot;&gt;int: PhoneNumber&lt;/font&gt;&lt;/div&gt;&lt;div&gt;&lt;font style=&quot;font-size: 15px;&quot;&gt;image : Image&lt;/font&gt;&lt;/div&gt;&lt;div&gt;&lt;font style=&quot;font-size: 15px;&quot;&gt;string: Position&lt;/font&gt;&lt;/div&gt;" style="text;strokeColor=none;fillColor=none;align=left;verticalAlign=top;spacingLeft=4;spacingRight=4;overflow=hidden;rotatable=0;points=[[0,0.5],[1,0.5]];portConstraint=eastwest;whiteSpace=wrap;html=1;" parent="kLX442n7oc1yGY5g-aFO-5" vertex="1">
          <mxGeometry y="26" width="230" height="124" as="geometry" />
        </mxCell>
        <mxCell id="kLX442n7oc1yGY5g-aFO-7" value="" style="line;strokeWidth=1;fillColor=none;align=left;verticalAlign=middle;spacingTop=-1;spacingLeft=3;spacingRight=3;rotatable=0;labelPosition=right;points=[];portConstraint=eastwest;strokeColor=inherit;" parent="kLX442n7oc1yGY5g-aFO-5" vertex="1">
          <mxGeometry y="150" width="230" height="8" as="geometry" />
        </mxCell>
        <mxCell id="kLX442n7oc1yGY5g-aFO-8" value="&lt;span style=&quot;font-size: 15px;&quot;&gt;string getWorkersInfo( workersID: int, Name: String, Email: char,&lt;/span&gt;" style="text;strokeColor=none;fillColor=none;align=left;verticalAlign=top;spacingLeft=4;spacingRight=4;overflow=hidden;rotatable=0;points=[[0,0.5],[1,0.5]];portConstraint=eastwest;whiteSpace=wrap;html=1;" parent="kLX442n7oc1yGY5g-aFO-5" vertex="1">
          <mxGeometry y="158" width="230" height="80" as="geometry" />
        </mxCell>
        <mxCell id="c6BLKW05PTlq8Iq8Gtbe-1" value="Notes:&lt;br&gt;&lt;div&gt;1. Core entities in the system: Admin, Staff, Doctor, Patient, Exam, Results, Report, Monitor&lt;/div&gt;&lt;div&gt;2. Classes should support the use cases&lt;/div&gt;&lt;div&gt;3. design patterns (like MVC, Observer, Factory, etc.)&lt;/div&gt;&lt;div&gt;4  Single Responsibility&lt;/div&gt;" style="shape=note;whiteSpace=wrap;html=1;backgroundOutline=1;darkOpacity=0.05;" vertex="1" parent="1">
          <mxGeometry x="-680" y="60" width="250" height="180" as="geometry" />
        </mxCell>
        <mxCell id="c6BLKW05PTlq8Iq8Gtbe-2" value="Admin" style="swimlane;fontStyle=1;align=center;verticalAlign=top;childLayout=stackLayout;horizontal=1;startSize=26;horizontalStack=0;resizeParent=1;resizeParentMax=0;resizeLast=0;collapsible=1;marginBottom=0;whiteSpace=wrap;html=1;fillColor=#f8cecc;strokeColor=#b85450;" vertex="1" parent="1">
          <mxGeometry x="-370" y="860" width="270" height="200" as="geometry" />
        </mxCell>
        <mxCell id="c6BLKW05PTlq8Iq8Gtbe-3" value="_" style="text;strokeColor=none;fillColor=none;align=left;verticalAlign=top;spacingLeft=4;spacingRight=4;overflow=hidden;rotatable=0;points=[[0,0.5],[1,0.5]];portConstraint=eastwest;whiteSpace=wrap;html=1;" vertex="1" parent="c6BLKW05PTlq8Iq8Gtbe-2">
          <mxGeometry y="26" width="270" height="104" as="geometry" />
        </mxCell>
        <mxCell id="c6BLKW05PTlq8Iq8Gtbe-4" value="" style="line;strokeWidth=1;fillColor=none;align=left;verticalAlign=middle;spacingTop=-1;spacingLeft=3;spacingRight=3;rotatable=0;labelPosition=right;points=[];portConstraint=eastwest;strokeColor=inherit;" vertex="1" parent="c6BLKW05PTlq8Iq8Gtbe-2">
          <mxGeometry y="130" width="270" height="8" as="geometry" />
        </mxCell>
        <mxCell id="c6BLKW05PTlq8Iq8Gtbe-5" value="_" style="text;strokeColor=none;fillColor=none;align=left;verticalAlign=top;spacingLeft=4;spacingRight=4;overflow=hidden;rotatable=0;points=[[0,0.5],[1,0.5]];portConstraint=eastwest;whiteSpace=wrap;html=1;" vertex="1" parent="c6BLKW05PTlq8Iq8Gtbe-2">
          <mxGeometry y="138" width="270" height="62" as="geometry" />
        </mxCell>
        <mxCell id="c6BLKW05PTlq8Iq8Gtbe-6" value="Staff" style="swimlane;fontStyle=1;align=center;verticalAlign=top;childLayout=stackLayout;horizontal=1;startSize=26;horizontalStack=0;resizeParent=1;resizeParentMax=0;resizeLast=0;collapsible=1;marginBottom=0;whiteSpace=wrap;html=1;fillColor=#f8cecc;strokeColor=#b85450;" vertex="1" parent="1">
          <mxGeometry x="470" y="940" width="270" height="200" as="geometry" />
        </mxCell>
        <mxCell id="c6BLKW05PTlq8Iq8Gtbe-7" value="_" style="text;strokeColor=none;fillColor=none;align=left;verticalAlign=top;spacingLeft=4;spacingRight=4;overflow=hidden;rotatable=0;points=[[0,0.5],[1,0.5]];portConstraint=eastwest;whiteSpace=wrap;html=1;" vertex="1" parent="c6BLKW05PTlq8Iq8Gtbe-6">
          <mxGeometry y="26" width="270" height="104" as="geometry" />
        </mxCell>
        <mxCell id="c6BLKW05PTlq8Iq8Gtbe-8" value="" style="line;strokeWidth=1;fillColor=none;align=left;verticalAlign=middle;spacingTop=-1;spacingLeft=3;spacingRight=3;rotatable=0;labelPosition=right;points=[];portConstraint=eastwest;strokeColor=inherit;" vertex="1" parent="c6BLKW05PTlq8Iq8Gtbe-6">
          <mxGeometry y="130" width="270" height="8" as="geometry" />
        </mxCell>
        <mxCell id="c6BLKW05PTlq8Iq8Gtbe-9" value="_" style="text;strokeColor=none;fillColor=none;align=left;verticalAlign=top;spacingLeft=4;spacingRight=4;overflow=hidden;rotatable=0;points=[[0,0.5],[1,0.5]];portConstraint=eastwest;whiteSpace=wrap;html=1;" vertex="1" parent="c6BLKW05PTlq8Iq8Gtbe-6">
          <mxGeometry y="138" width="270" height="62" as="geometry" />
        </mxCell>
        <mxCell id="c6BLKW05PTlq8Iq8Gtbe-10" value="Doctors" style="swimlane;fontStyle=1;align=center;verticalAlign=top;childLayout=stackLayout;horizontal=1;startSize=26;horizontalStack=0;resizeParent=1;resizeParentMax=0;resizeLast=0;collapsible=1;marginBottom=0;whiteSpace=wrap;html=1;fillColor=#f8cecc;strokeColor=#b85450;" vertex="1" parent="1">
          <mxGeometry x="60" y="940" width="270" height="200" as="geometry" />
        </mxCell>
        <mxCell id="c6BLKW05PTlq8Iq8Gtbe-11" value="_" style="text;strokeColor=none;fillColor=none;align=left;verticalAlign=top;spacingLeft=4;spacingRight=4;overflow=hidden;rotatable=0;points=[[0,0.5],[1,0.5]];portConstraint=eastwest;whiteSpace=wrap;html=1;" vertex="1" parent="c6BLKW05PTlq8Iq8Gtbe-10">
          <mxGeometry y="26" width="270" height="104" as="geometry" />
        </mxCell>
        <mxCell id="c6BLKW05PTlq8Iq8Gtbe-12" value="" style="line;strokeWidth=1;fillColor=none;align=left;verticalAlign=middle;spacingTop=-1;spacingLeft=3;spacingRight=3;rotatable=0;labelPosition=right;points=[];portConstraint=eastwest;strokeColor=inherit;" vertex="1" parent="c6BLKW05PTlq8Iq8Gtbe-10">
          <mxGeometry y="130" width="270" height="8" as="geometry" />
        </mxCell>
        <mxCell id="c6BLKW05PTlq8Iq8Gtbe-13" value="_" style="text;strokeColor=none;fillColor=none;align=left;verticalAlign=top;spacingLeft=4;spacingRight=4;overflow=hidden;rotatable=0;points=[[0,0.5],[1,0.5]];portConstraint=eastwest;whiteSpace=wrap;html=1;" vertex="1" parent="c6BLKW05PTlq8Iq8Gtbe-10">
          <mxGeometry y="138" width="270" height="62" as="geometry" />
        </mxCell>
        <mxCell id="c6BLKW05PTlq8Iq8Gtbe-14" style="edgeStyle=orthogonalEdgeStyle;rounded=0;orthogonalLoop=1;jettySize=auto;html=1;entryX=-0.017;entryY=0.045;entryDx=0;entryDy=0;entryPerimeter=0;endArrow=block;endFill=0;strokeWidth=1;endSize=13;" edge="1" parent="1" source="c6BLKW05PTlq8Iq8Gtbe-3" target="kLX442n7oc1yGY5g-aFO-8">
          <mxGeometry relative="1" as="geometry" />
        </mxCell>
        <mxCell id="c6BLKW05PTlq8Iq8Gtbe-16" style="edgeStyle=orthogonalEdgeStyle;rounded=0;orthogonalLoop=1;jettySize=auto;html=1;entryX=0.402;entryY=1;entryDx=0;entryDy=0;entryPerimeter=0;endArrow=block;endFill=0;endSize=13;" edge="1" parent="1" source="c6BLKW05PTlq8Iq8Gtbe-10" target="kLX442n7oc1yGY5g-aFO-8">
          <mxGeometry relative="1" as="geometry" />
        </mxCell>
        <mxCell id="c6BLKW05PTlq8Iq8Gtbe-17" style="edgeStyle=orthogonalEdgeStyle;rounded=0;orthogonalLoop=1;jettySize=auto;html=1;entryX=1.011;entryY=0.273;entryDx=0;entryDy=0;entryPerimeter=0;endArrow=block;endFill=0;endSize=13;" edge="1" parent="1" source="c6BLKW05PTlq8Iq8Gtbe-6" target="kLX442n7oc1yGY5g-aFO-8">
          <mxGeometry relative="1" as="geometry" />
        </mxCell>
        <mxCell id="c6BLKW05PTlq8Iq8Gtbe-19" value="User" style="swimlane;fontStyle=1;align=center;verticalAlign=top;childLayout=stackLayout;horizontal=1;startSize=26;horizontalStack=0;resizeParent=1;resizeParentMax=0;resizeLast=0;collapsible=1;marginBottom=0;whiteSpace=wrap;html=1;fillColor=#dae8fc;strokeColor=#6c8ebf;" vertex="1" parent="1">
          <mxGeometry x="270" y="200" width="230" height="238" as="geometry" />
        </mxCell>
        <mxCell id="c6BLKW05PTlq8Iq8Gtbe-20" value="_" style="text;strokeColor=none;fillColor=none;align=left;verticalAlign=top;spacingLeft=4;spacingRight=4;overflow=hidden;rotatable=0;points=[[0,0.5],[1,0.5]];portConstraint=eastwest;whiteSpace=wrap;html=1;" vertex="1" parent="c6BLKW05PTlq8Iq8Gtbe-19">
          <mxGeometry y="26" width="230" height="124" as="geometry" />
        </mxCell>
        <mxCell id="c6BLKW05PTlq8Iq8Gtbe-21" value="" style="line;strokeWidth=1;fillColor=none;align=left;verticalAlign=middle;spacingTop=-1;spacingLeft=3;spacingRight=3;rotatable=0;labelPosition=right;points=[];portConstraint=eastwest;strokeColor=inherit;" vertex="1" parent="c6BLKW05PTlq8Iq8Gtbe-19">
          <mxGeometry y="150" width="230" height="8" as="geometry" />
        </mxCell>
        <mxCell id="c6BLKW05PTlq8Iq8Gtbe-22" value="_" style="text;strokeColor=none;fillColor=none;align=left;verticalAlign=top;spacingLeft=4;spacingRight=4;overflow=hidden;rotatable=0;points=[[0,0.5],[1,0.5]];portConstraint=eastwest;whiteSpace=wrap;html=1;" vertex="1" parent="c6BLKW05PTlq8Iq8Gtbe-19">
          <mxGeometry y="158" width="230" height="80" as="geometry" />
        </mxCell>
        <mxCell id="c6BLKW05PTlq8Iq8Gtbe-23" style="edgeStyle=orthogonalEdgeStyle;rounded=0;orthogonalLoop=1;jettySize=auto;html=1;entryX=-0.004;entryY=0.087;entryDx=0;entryDy=0;entryPerimeter=0;endArrow=block;endFill=0;endSize=13;exitX=1.001;exitY=0.7;exitDx=0;exitDy=0;exitPerimeter=0;" edge="1" parent="1" source="c6BLKW05PTlq8Iq8Gtbe-30" target="c6BLKW05PTlq8Iq8Gtbe-22">
          <mxGeometry relative="1" as="geometry" />
        </mxCell>
        <mxCell id="c6BLKW05PTlq8Iq8Gtbe-24" style="edgeStyle=orthogonalEdgeStyle;rounded=0;orthogonalLoop=1;jettySize=auto;html=1;entryX=0.496;entryY=1.009;entryDx=0;entryDy=0;entryPerimeter=0;endArrow=block;endFill=0;endSize=13;" edge="1" parent="1" source="kLX442n7oc1yGY5g-aFO-5" target="c6BLKW05PTlq8Iq8Gtbe-22">
          <mxGeometry relative="1" as="geometry" />
        </mxCell>
        <mxCell id="c6BLKW05PTlq8Iq8Gtbe-29" value="&lt;font style=&quot;font-size: 15px;&quot;&gt;Patient&lt;/font&gt;" style="swimlane;fontStyle=1;align=center;verticalAlign=top;childLayout=stackLayout;horizontal=1;startSize=26;horizontalStack=0;resizeParent=1;resizeParentMax=0;resizeLast=0;collapsible=1;marginBottom=0;whiteSpace=wrap;html=1;fillColor=#f8cecc;strokeColor=#b85450;" vertex="1" parent="1">
          <mxGeometry x="-320" y="500" width="270" height="200" as="geometry" />
        </mxCell>
        <mxCell id="c6BLKW05PTlq8Iq8Gtbe-30" value="&lt;font style=&quot;font-size: 15px;&quot;&gt;int: healthID&lt;/font&gt;&lt;div&gt;&lt;font style=&quot;font-size: 15px;&quot;&gt;string: Name&lt;/font&gt;&lt;/div&gt;&lt;div&gt;&lt;font style=&quot;font-size: 15px;&quot;&gt;char: Email&lt;/font&gt;&lt;/div&gt;&lt;div&gt;&lt;span style=&quot;font-size: 15px;&quot;&gt;date :DOB&lt;/span&gt;&lt;/div&gt;&lt;div&gt;&lt;font style=&quot;font-size: 15px;&quot;&gt;bool: Status&lt;/font&gt;&lt;/div&gt;&lt;div&gt;&lt;font style=&quot;font-size: 15px;&quot;&gt;&lt;br&gt;&lt;br&gt;&lt;/font&gt;&lt;/div&gt;" style="text;strokeColor=none;fillColor=none;align=left;verticalAlign=top;spacingLeft=4;spacingRight=4;overflow=hidden;rotatable=0;points=[[0,0.5],[1,0.5]];portConstraint=eastwest;whiteSpace=wrap;html=1;" vertex="1" parent="c6BLKW05PTlq8Iq8Gtbe-29">
          <mxGeometry y="26" width="270" height="104" as="geometry" />
        </mxCell>
        <mxCell id="c6BLKW05PTlq8Iq8Gtbe-31" value="" style="line;strokeWidth=1;fillColor=none;align=left;verticalAlign=middle;spacingTop=-1;spacingLeft=3;spacingRight=3;rotatable=0;labelPosition=right;points=[];portConstraint=eastwest;strokeColor=inherit;" vertex="1" parent="c6BLKW05PTlq8Iq8Gtbe-29">
          <mxGeometry y="130" width="270" height="8" as="geometry" />
        </mxCell>
        <mxCell id="c6BLKW05PTlq8Iq8Gtbe-32" value="&lt;span style=&quot;font-size: 15px;&quot;&gt;string getPatient (healthID: int, Name: string, char: Email, bool: Status) &lt;br&gt;&lt;/span&gt;" style="text;strokeColor=none;fillColor=none;align=left;verticalAlign=top;spacingLeft=4;spacingRight=4;overflow=hidden;rotatable=0;points=[[0,0.5],[1,0.5]];portConstraint=eastwest;whiteSpace=wrap;html=1;" vertex="1" parent="c6BLKW05PTlq8Iq8Gtbe-29">
          <mxGeometry y="138" width="270" height="62" as="geometry" />
        </mxCell>
        <mxCell id="c6BLKW05PTlq8Iq8Gtbe-33" value="Results" style="swimlane;fontStyle=1;align=center;verticalAlign=top;childLayout=stackLayout;horizontal=1;startSize=26;horizontalStack=0;resizeParent=1;resizeParentMax=0;resizeLast=0;collapsible=1;marginBottom=0;whiteSpace=wrap;html=1;fillColor=#d5e8d4;strokeColor=#82b366;" vertex="1" parent="1">
          <mxGeometry x="-910" y="420" width="230" height="238" as="geometry" />
        </mxCell>
        <mxCell id="c6BLKW05PTlq8Iq8Gtbe-34" value="_" style="text;strokeColor=none;fillColor=none;align=left;verticalAlign=top;spacingLeft=4;spacingRight=4;overflow=hidden;rotatable=0;points=[[0,0.5],[1,0.5]];portConstraint=eastwest;whiteSpace=wrap;html=1;" vertex="1" parent="c6BLKW05PTlq8Iq8Gtbe-33">
          <mxGeometry y="26" width="230" height="124" as="geometry" />
        </mxCell>
        <mxCell id="c6BLKW05PTlq8Iq8Gtbe-35" value="" style="line;strokeWidth=1;fillColor=none;align=left;verticalAlign=middle;spacingTop=-1;spacingLeft=3;spacingRight=3;rotatable=0;labelPosition=right;points=[];portConstraint=eastwest;strokeColor=inherit;" vertex="1" parent="c6BLKW05PTlq8Iq8Gtbe-33">
          <mxGeometry y="150" width="230" height="8" as="geometry" />
        </mxCell>
        <mxCell id="c6BLKW05PTlq8Iq8Gtbe-36" value="_" style="text;strokeColor=none;fillColor=none;align=left;verticalAlign=top;spacingLeft=4;spacingRight=4;overflow=hidden;rotatable=0;points=[[0,0.5],[1,0.5]];portConstraint=eastwest;whiteSpace=wrap;html=1;" vertex="1" parent="c6BLKW05PTlq8Iq8Gtbe-33">
          <mxGeometry y="158" width="230" height="80" as="geometry" />
        </mxCell>
        <mxCell id="c6BLKW05PTlq8Iq8Gtbe-37" value="Exam" style="swimlane;fontStyle=1;align=center;verticalAlign=top;childLayout=stackLayout;horizontal=1;startSize=26;horizontalStack=0;resizeParent=1;resizeParentMax=0;resizeLast=0;collapsible=1;marginBottom=0;whiteSpace=wrap;html=1;fillColor=#d5e8d4;strokeColor=#82b366;" vertex="1" parent="1">
          <mxGeometry x="-620" y="420" width="230" height="238" as="geometry" />
        </mxCell>
        <mxCell id="c6BLKW05PTlq8Iq8Gtbe-38" value="_" style="text;strokeColor=none;fillColor=none;align=left;verticalAlign=top;spacingLeft=4;spacingRight=4;overflow=hidden;rotatable=0;points=[[0,0.5],[1,0.5]];portConstraint=eastwest;whiteSpace=wrap;html=1;" vertex="1" parent="c6BLKW05PTlq8Iq8Gtbe-37">
          <mxGeometry y="26" width="230" height="124" as="geometry" />
        </mxCell>
        <mxCell id="c6BLKW05PTlq8Iq8Gtbe-39" value="" style="line;strokeWidth=1;fillColor=none;align=left;verticalAlign=middle;spacingTop=-1;spacingLeft=3;spacingRight=3;rotatable=0;labelPosition=right;points=[];portConstraint=eastwest;strokeColor=inherit;" vertex="1" parent="c6BLKW05PTlq8Iq8Gtbe-37">
          <mxGeometry y="150" width="230" height="8" as="geometry" />
        </mxCell>
        <mxCell id="c6BLKW05PTlq8Iq8Gtbe-40" value="_" style="text;strokeColor=none;fillColor=none;align=left;verticalAlign=top;spacingLeft=4;spacingRight=4;overflow=hidden;rotatable=0;points=[[0,0.5],[1,0.5]];portConstraint=eastwest;whiteSpace=wrap;html=1;" vertex="1" parent="c6BLKW05PTlq8Iq8Gtbe-37">
          <mxGeometry y="158" width="230" height="80" as="geometry" />
        </mxCell>
        <mxCell id="c6BLKW05PTlq8Iq8Gtbe-41" value="Report" style="swimlane;fontStyle=1;align=center;verticalAlign=top;childLayout=stackLayout;horizontal=1;startSize=26;horizontalStack=0;resizeParent=1;resizeParentMax=0;resizeLast=0;collapsible=1;marginBottom=0;whiteSpace=wrap;html=1;fillColor=#d5e8d4;strokeColor=#82b366;" vertex="1" parent="1">
          <mxGeometry x="-1190" y="420" width="230" height="238" as="geometry" />
        </mxCell>
        <mxCell id="c6BLKW05PTlq8Iq8Gtbe-42" value="_" style="text;strokeColor=none;fillColor=none;align=left;verticalAlign=top;spacingLeft=4;spacingRight=4;overflow=hidden;rotatable=0;points=[[0,0.5],[1,0.5]];portConstraint=eastwest;whiteSpace=wrap;html=1;" vertex="1" parent="c6BLKW05PTlq8Iq8Gtbe-41">
          <mxGeometry y="26" width="230" height="124" as="geometry" />
        </mxCell>
        <mxCell id="c6BLKW05PTlq8Iq8Gtbe-43" value="" style="line;strokeWidth=1;fillColor=none;align=left;verticalAlign=middle;spacingTop=-1;spacingLeft=3;spacingRight=3;rotatable=0;labelPosition=right;points=[];portConstraint=eastwest;strokeColor=inherit;" vertex="1" parent="c6BLKW05PTlq8Iq8Gtbe-41">
          <mxGeometry y="150" width="230" height="8" as="geometry" />
        </mxCell>
        <mxCell id="c6BLKW05PTlq8Iq8Gtbe-44" value="_" style="text;strokeColor=none;fillColor=none;align=left;verticalAlign=top;spacingLeft=4;spacingRight=4;overflow=hidden;rotatable=0;points=[[0,0.5],[1,0.5]];portConstraint=eastwest;whiteSpace=wrap;html=1;" vertex="1" parent="c6BLKW05PTlq8Iq8Gtbe-41">
          <mxGeometry y="158" width="230" height="80" as="geometry" />
        </mxCell>
        <mxCell id="c6BLKW05PTlq8Iq8Gtbe-45" value="Monitor" style="swimlane;fontStyle=1;align=center;verticalAlign=top;childLayout=stackLayout;horizontal=1;startSize=26;horizontalStack=0;resizeParent=1;resizeParentMax=0;resizeLast=0;collapsible=1;marginBottom=0;whiteSpace=wrap;html=1;fillColor=#d5e8d4;strokeColor=#82b366;" vertex="1" parent="1">
          <mxGeometry x="-1190" y="700" width="230" height="238" as="geometry" />
        </mxCell>
        <mxCell id="c6BLKW05PTlq8Iq8Gtbe-46" value="_" style="text;strokeColor=none;fillColor=none;align=left;verticalAlign=top;spacingLeft=4;spacingRight=4;overflow=hidden;rotatable=0;points=[[0,0.5],[1,0.5]];portConstraint=eastwest;whiteSpace=wrap;html=1;" vertex="1" parent="c6BLKW05PTlq8Iq8Gtbe-45">
          <mxGeometry y="26" width="230" height="124" as="geometry" />
        </mxCell>
        <mxCell id="c6BLKW05PTlq8Iq8Gtbe-47" value="" style="line;strokeWidth=1;fillColor=none;align=left;verticalAlign=middle;spacingTop=-1;spacingLeft=3;spacingRight=3;rotatable=0;labelPosition=right;points=[];portConstraint=eastwest;strokeColor=inherit;" vertex="1" parent="c6BLKW05PTlq8Iq8Gtbe-45">
          <mxGeometry y="150" width="230" height="8" as="geometry" />
        </mxCell>
        <mxCell id="c6BLKW05PTlq8Iq8Gtbe-48" value="_" style="text;strokeColor=none;fillColor=none;align=left;verticalAlign=top;spacingLeft=4;spacingRight=4;overflow=hidden;rotatable=0;points=[[0,0.5],[1,0.5]];portConstraint=eastwest;whiteSpace=wrap;html=1;" vertex="1" parent="c6BLKW05PTlq8Iq8Gtbe-45">
          <mxGeometry y="158" width="230" height="80" as="geometry" />
        </mxCell>
      </root>
    </mxGraphModel>
  </diagram>
</mxfile>
